<?xml version="1.0" encoding="UTF-8"?>
<svg width="700pt" height="700pt" version="1.1" viewBox="0 0 700 700" xmlns="http://www.w3.org/2000/svg">
 <g>
  <path d="m198.33 408.33c-2.9883 0-5.9727-1.1445-8.2617-3.4062l-116.67-116.67c-4.5508-4.5508-4.5508-11.945 0-16.496l116.67-116.67c4.5508-4.5508 11.945-4.5508 16.496 0 4.5508 4.5508 4.5508 11.945 0 16.496l-108.4 108.41 108.41 108.41c4.5508 4.5508 4.5508 11.945 0 16.496-2.2617 2.2891-5.25 3.4297-8.2383 3.4297z"/>
  <path d="m501.67 408.33c-2.9883 0-5.9727-1.1445-8.2617-3.4062-4.5508-4.5508-4.5508-11.945 0-16.496l108.43-108.43-108.41-108.41c-4.5508-4.5508-4.5508-11.945 0-16.496 4.5508-4.5508 11.945-4.5508 16.496 0l116.67 116.67c4.5508 4.5508 4.5508 11.945 0 16.496l-116.67 116.67c-2.2852 2.2617-5.2734 3.4023-8.2578 3.4023z"/>
 </g>
</svg>
