<?xml version="1.0" encoding="UTF-8"?>
<svg width="700pt" height="700pt" version="1.1" viewBox="0 0 700 700" xmlns="http://www.w3.org/2000/svg">
 <path d="m217.38 450.19c5.625 3.2227 12.008 4.8828 18.492 4.8047 6.4844-0.078125 12.828-1.8906 18.371-5.2461l229.16-137.2h0.003907c11.348-6.9219 18.273-19.258 18.273-32.551s-6.9258-25.629-18.273-32.551l-229.07-137.2c-5.543-3.3633-11.887-5.1758-18.371-5.2539-6.4844-0.078125-12.871 1.582-18.496 4.8125-5.8594 3.2695-10.73 8.0625-14.098 13.867-3.3672 5.8047-5.1055 12.414-5.0352 19.125v274.4c-0.078125 6.7031 1.6445 13.305 4.9961 19.109 3.3516 5.8047 8.2031 10.602 14.047 13.883zm4.293-307.39c-0.097657-5.2383 2.6797-10.105 7.2305-12.695 2.0117-1.1523 4.2891-1.7617 6.6055-1.7734 2.3828 0.015625 4.7148 0.68359 6.7422 1.9375l229.16 137.2c4.3125 2.707 6.9297 7.4414 6.9297 12.531s-2.6172 9.8242-6.9297 12.531l-229.16 137.2c-4.0742 2.5234-9.2109 2.5859-13.348 0.16406-4.5508-2.5898-7.3281-7.457-7.2305-12.695z"/>
</svg>
